<svg width="48" height="48" viewBox="0 0 48 48" fill="none" xmlns="http://www.w3.org/2000/svg">
<path d="M20.28 0C18.5101 0 17.0731 1.24189 16.635 2.88H12.6H5.88C4.29216 2.88 3 4.17216 3 5.76V43.2C3 44.7878 4.29216 46.08 5.88 46.08H26.1112C25.5823 45.4906 25.1119 44.8493 24.7125 44.16H5.88C5.35104 44.16 4.92 43.7299 4.92 43.2V5.76C4.92 5.23008 5.35104 4.8 5.88 4.8H11.64V7.68C11.64 9.25917 12.9408 10.56 14.52 10.56H26.04C27.6192 10.56 28.92 9.25917 28.92 7.68V4.8H34.68C35.209 4.8 35.64 5.23008 35.64 5.76V26.9287C36.2986 26.9835 36.9379 27.0966 37.56 27.2569V5.76C37.56 4.17216 36.2678 2.88 34.68 2.88H27.96H23.925C23.4869 1.24189 22.0499 0 20.28 0ZM20.28 1.92C21.352 1.92 22.2 2.768 22.2 3.84C22.2 4.0946 22.3012 4.33876 22.4812 4.51879C22.6612 4.69882 22.9054 4.79997 23.16 4.8H27V7.68C27 8.22243 26.5824 8.64 26.04 8.64H14.52C13.9776 8.64 13.56 8.22243 13.56 7.68V4.8H17.4C17.6546 4.79997 17.8988 4.69882 18.0788 4.51879C18.2588 4.33876 18.36 4.0946 18.36 3.84C18.36 2.768 19.208 1.92 20.28 1.92ZM9.72 17.28C9.59279 17.2782 9.46649 17.3017 9.34844 17.3491C9.23039 17.3966 9.12294 17.467 9.03235 17.5563C8.94176 17.6456 8.86982 17.7521 8.82071 17.8695C8.77161 17.9868 8.74633 18.1128 8.74633 18.24C8.74633 18.3672 8.77161 18.4932 8.82071 18.6105C8.86982 18.7279 8.94176 18.8344 9.03235 18.9237C9.12294 19.013 9.23039 19.0834 9.34844 19.1309C9.46649 19.1783 9.59279 19.2018 9.72 19.2H30.84C30.9672 19.2018 31.0935 19.1783 31.2116 19.1309C31.3296 19.0834 31.4371 19.013 31.5276 18.9237C31.6182 18.8344 31.6902 18.7279 31.7393 18.6105C31.7884 18.4932 31.8137 18.3672 31.8137 18.24C31.8137 18.1128 31.7884 17.9868 31.7393 17.8695C31.6902 17.7521 31.6182 17.6456 31.5276 17.5563C31.4371 17.467 31.3296 17.3966 31.2116 17.3491C31.0935 17.3017 30.9672 17.2782 30.84 17.28H9.72ZM9.72 23.04C9.59279 23.0382 9.46649 23.0617 9.34844 23.1091C9.23039 23.1566 9.12294 23.227 9.03235 23.3163C8.94176 23.4056 8.86982 23.5121 8.82071 23.6295C8.77161 23.7468 8.74633 23.8728 8.74633 24C8.74633 24.1272 8.77161 24.2532 8.82071 24.3705C8.86982 24.4879 8.94176 24.5944 9.03235 24.6837C9.12294 24.773 9.23039 24.8434 9.34844 24.8909C9.46649 24.9383 9.59279 24.9618 9.72 24.96H30.84C30.9672 24.9618 31.0935 24.9383 31.2116 24.8909C31.3296 24.8434 31.4371 24.773 31.5276 24.6837C31.6182 24.5944 31.6902 24.4879 31.7393 24.3705C31.7884 24.2532 31.8137 24.1272 31.8137 24C31.8137 23.8728 31.7884 23.7468 31.7393 23.6295C31.6902 23.5121 31.6182 23.4056 31.5276 23.3163C31.4371 23.227 31.3296 23.1566 31.2116 23.1091C31.0935 23.0617 30.9672 23.0382 30.84 23.04H9.72ZM9.72 28.8C9.59279 28.7982 9.46649 28.8217 9.34844 28.8691C9.23039 28.9166 9.12294 28.987 9.03235 29.0763C8.94176 29.1656 8.86982 29.2721 8.82071 29.3895C8.77161 29.5068 8.74633 29.6328 8.74633 29.76C8.74633 29.8872 8.77161 30.0132 8.82071 30.1305C8.86982 30.2479 8.94176 30.3544 9.03235 30.4437C9.12294 30.533 9.23039 30.6034 9.34844 30.6509C9.46649 30.6983 9.59279 30.7218 9.72 30.72H25.08C25.2072 30.7218 25.3335 30.6983 25.4516 30.6509C25.5696 30.6034 25.6771 30.533 25.7677 30.4437C25.8582 30.3544 25.9302 30.2479 25.9793 30.1305C26.0284 30.0132 26.0537 29.8872 26.0537 29.76C26.0537 29.6328 26.0284 29.5068 25.9793 29.3895C25.9302 29.2721 25.8582 29.1656 25.7677 29.0763C25.6771 28.987 25.5696 28.9166 25.4516 28.8691C25.3335 28.8217 25.2072 28.7982 25.08 28.8H9.72ZM34.68 28.8C29.4 28.8 25.08 33.12 25.08 38.4C25.08 43.68 29.4 48 34.68 48C39.96 48 44.28 43.68 44.28 38.4C44.28 33.12 39.96 28.8 34.68 28.8ZM34.68 30.72C38.904 30.72 42.36 34.176 42.36 38.4C42.36 42.624 38.904 46.08 34.68 46.08C30.456 46.08 27 42.624 27 38.4C27 34.176 30.456 30.72 34.68 30.72ZM33.72 32.64V37.92L30.2644 40.5112L31.4156 42.0487L35.64 38.88V32.64H33.72ZM9.72 34.56C9.59279 34.5582 9.46649 34.5817 9.34844 34.6291C9.23039 34.6766 9.12294 34.747 9.03235 34.8363C8.94176 34.9257 8.86982 35.0321 8.82071 35.1495C8.77161 35.2668 8.74633 35.3928 8.74633 35.52C8.74633 35.6472 8.77161 35.7732 8.82071 35.8905C8.86982 36.0079 8.94176 36.1143 9.03235 36.2037C9.12294 36.293 9.23039 36.3634 9.34844 36.4109C9.46649 36.4583 9.59279 36.4818 9.72 36.48H22.2C22.3272 36.4818 22.4535 36.4583 22.5716 36.4109C22.6896 36.3634 22.7971 36.293 22.8876 36.2037C22.9782 36.1143 23.0502 36.0079 23.0993 35.8905C23.1484 35.7732 23.1737 35.6472 23.1737 35.52C23.1737 35.3928 23.1484 35.2668 23.0993 35.1495C23.0502 35.0321 22.9782 34.9257 22.8876 34.8363C22.7971 34.747 22.6896 34.6766 22.5716 34.6291C22.4535 34.5817 22.3272 34.5582 22.2 34.56H9.72Z" fill="#3C292D"/>
</svg>
