<svg width="23" height="22" viewBox="0 0 23 22" fill="none" xmlns="http://www.w3.org/2000/svg">
<path fill-rule="evenodd" clip-rule="evenodd" d="M3.08036 0C2.17978 0 1.4375 0.710008 1.4375 1.57143V21.4762C1.4375 21.7647 1.6835 22 1.98512 22H20.6042C20.9058 22 21.1518 21.7647 21.1518 21.4762V1.57143C21.1518 0.710008 20.4095 0 19.5089 0H3.08036ZM3.08037 1.04763H19.5089C19.8127 1.04763 20.0566 1.28089 20.0566 1.57144V20.9524H13.4851V16.7619C13.4851 16.4734 13.2391 16.2381 12.9375 16.2381H9.60046C9.31809 16.2627 9.10204 16.4898 9.10418 16.7619V20.9524H2.53275V1.57144C2.53275 1.28089 2.77661 1.04763 3.08037 1.04763ZM3.62793 2.61907C3.62366 2.36331 3.8119 2.14232 4.07287 2.09526H7.46127C7.76289 2.09526 8.00889 2.33057 8.00889 2.61907V5.23812C8.00889 5.52663 7.76289 5.76193 7.46127 5.76193H4.17555C3.87393 5.76193 3.62793 5.52663 3.62793 5.23812V2.61907ZM9.54913 2.09526C9.28816 2.14232 9.09991 2.36331 9.10419 2.61907V5.23812C9.10419 5.52663 9.35019 5.76193 9.65181 5.76193H12.9375C13.2391 5.76193 13.4851 5.52663 13.4851 5.23812V2.61907C13.4851 2.33057 13.2391 2.09526 12.9375 2.09526H9.54913ZM14.5803 2.61907C14.576 2.36331 14.7643 2.14232 15.0252 2.09526H18.4136C18.7153 2.09526 18.9613 2.33057 18.9613 2.61907V5.23812C18.9613 5.52663 18.7153 5.76193 18.4136 5.76193H15.1279C14.8263 5.76193 14.5803 5.52663 14.5803 5.23812V2.61907ZM4.72325 3.1429H6.91373V4.71432H4.72325V3.1429ZM12.3898 3.1429H10.1994V4.71432H12.3898V3.1429ZM15.6756 3.1429H17.8661V4.71432H15.6756V3.1429ZM3.62793 7.33328C3.62366 7.07752 3.8119 6.85653 4.07287 6.80947H7.46127C7.76289 6.80947 8.00889 7.04478 8.00889 7.33328V9.95233C8.00889 10.2408 7.76289 10.4761 7.46127 10.4761H4.17555C3.87393 10.4761 3.62793 10.2408 3.62793 9.95233V7.33328ZM9.54913 6.80947C9.28816 6.85653 9.09991 7.07752 9.10419 7.33328V9.95233C9.10419 10.2408 9.35019 10.4761 9.65181 10.4761H12.9375C13.2391 10.4761 13.4851 10.2408 13.4851 9.95233V7.33328C13.4851 7.04478 13.2391 6.80947 12.9375 6.80947H9.54913ZM14.5803 7.33328C14.576 7.07752 14.7643 6.85653 15.0252 6.80947H18.4136C18.7153 6.80947 18.9613 7.04478 18.9613 7.33328V9.95233C18.9613 10.2408 18.7153 10.4761 18.4136 10.4761H15.1279C14.8263 10.4761 14.5803 10.2408 14.5803 9.95233V7.33328ZM4.72325 7.8571H6.91373V9.42853H4.72325V7.8571ZM12.3898 7.8571H10.1994V9.42853H12.3898V7.8571ZM15.6756 7.8571H17.8661V9.42853H15.6756V7.8571ZM3.62793 12.0476C3.62366 11.7919 3.8119 11.5709 4.07287 11.5238H7.46127C7.76289 11.5238 8.00889 11.7591 8.00889 12.0476V14.6667C8.00889 14.9552 7.76289 15.1905 7.46127 15.1905H4.17555C3.87393 15.1905 3.62793 14.9552 3.62793 14.6667V12.0476ZM9.54913 11.5238C9.28816 11.5709 9.09991 11.7919 9.10419 12.0476V14.6667C9.10419 14.9552 9.35019 15.1905 9.65181 15.1905H12.9375C13.2391 15.1905 13.4851 14.9552 13.4851 14.6667V12.0476C13.4851 11.7591 13.2391 11.5238 12.9375 11.5238H9.54913ZM14.5803 12.0476C14.576 11.7919 14.7643 11.5709 15.0252 11.5238H18.4136C18.7153 11.5238 18.9613 11.7591 18.9613 12.0476V14.6667C18.9613 14.9552 18.7153 15.1905 18.4136 15.1905H15.1279C14.8263 15.1905 14.5803 14.9552 14.5803 14.6667V12.0476ZM4.72325 12.5714H6.91373V14.1429H4.72325V12.5714ZM12.3898 12.5714H10.1994V14.1429H12.3898V12.5714ZM15.6756 12.5714H17.8661V14.1429H15.6756V12.5714ZM3.62793 16.762C3.62366 16.5062 3.8119 16.2852 4.07287 16.2382H7.46127C7.76289 16.2382 8.00889 16.4735 8.00889 16.762V19.381C8.00889 19.6695 7.76289 19.9048 7.46127 19.9048H4.17555C3.87393 19.9048 3.62793 19.6695 3.62793 19.381V16.762ZM15.0252 16.2382C14.7643 16.2852 14.576 16.5062 14.5803 16.762V19.381C14.5803 19.6695 14.8263 19.9048 15.1279 19.9048H18.4136C18.7153 19.9048 18.9613 19.6695 18.9613 19.381V16.762C18.9613 16.4735 18.7153 16.2382 18.4136 16.2382H15.0252ZM6.91373 17.2857H4.72325V18.8571H6.91373V17.2857ZM10.1994 17.2857H12.3898V20.9523H10.1994V17.2857ZM17.8661 17.2857H15.6756V18.8571H17.8661V17.2857Z" fill="#3C292D"/>
</svg>
