<svg width="48" height="48" viewBox="0 0 48 48" fill="none" xmlns="http://www.w3.org/2000/svg">
<path fill-rule="evenodd" clip-rule="evenodd" d="M18.1768 6.26086C18.1768 2.81657 20.9934 0 24.4377 0C27.882 0 30.6986 2.81657 30.6986 6.26086C30.6986 9.70514 27.882 12.5217 24.4377 12.5217C20.9934 12.5217 18.1768 9.70514 18.1768 6.26086ZM28.6118 6.26071C28.6118 3.94143 26.7571 2.08681 24.4379 2.08681C22.1186 2.08681 20.2639 3.94143 20.2639 6.26071C20.2639 8.58 22.1186 10.4346 24.4379 10.4346C26.7571 10.4346 28.6118 8.58 28.6118 6.26071ZM19.7422 13.5653C16.5873 13.5653 14.0031 16.1495 14.0031 19.3044V31.1087C13.999 31.1536 13.999 31.1943 14.0031 31.2392V31.3044C13.999 31.4022 14.0112 31.5041 14.0357 31.5979C14.1906 33.1753 15.5194 34.4348 17.1335 34.4348C17.5003 34.4348 17.8468 34.3574 18.177 34.2392V44.3478C18.177 46.3533 19.8237 48 21.8291 48C22.8481 48 23.7734 47.572 24.4378 46.8913C25.1022 47.572 26.0275 48 27.0465 48C29.0519 48 30.6987 46.3533 30.6987 44.3478V34.2392C31.0288 34.3574 31.3753 34.4348 31.7421 34.4348C33.4011 34.4348 34.7829 33.106 34.8726 31.4674C34.8766 31.4144 34.8766 31.3574 34.8726 31.3044V19.3044C34.8726 16.1495 32.2883 13.5653 29.1335 13.5653H19.7422ZM29.1335 15.6521H19.7422C17.7164 15.6521 16.09 17.2825 16.09 19.3043V31.1086C16.0982 31.1738 16.0982 31.239 16.09 31.3042V31.3695C16.1226 31.9279 16.5669 32.3477 17.1335 32.3477C17.7245 32.3477 18.177 31.8953 18.177 31.3042V21.913H20.2639V44.3477C20.2639 45.2241 20.9528 45.9129 21.8292 45.9129C22.6525 45.9129 23.3169 45.3097 23.3944 44.5107V32.3477H25.4813V44.3477C25.4813 44.3652 25.4809 44.3832 25.4804 44.4013C25.4795 44.438 25.4786 44.4753 25.4813 44.5107C25.5588 45.3097 26.2232 45.9129 27.0465 45.9129C27.9229 45.9129 28.6117 45.2241 28.6117 44.3477V31.239C28.6077 31.1942 28.6077 31.1534 28.6117 31.1086V21.913H30.6987V31.3042C30.6987 31.8953 31.1511 32.3477 31.7422 32.3477C32.2965 32.3477 32.7367 31.9442 32.7856 31.4021V19.3043C32.7856 17.2825 31.1593 15.6521 29.1335 15.6521Z" fill="#3C292D"/>
</svg>
