<svg width="24" height="22" viewBox="0 0 24 22" fill="none" xmlns="http://www.w3.org/2000/svg">
<path d="M23.3532 0.00375214C23.2974 0.0119352 23.2438 0.0283014 23.1925 0.0528507L0.33934 9.05425C0.13625 9.13608 0.00457755 9.3202 0.00011376 9.52273C-0.00434946 9.72731 0.12286 9.91347 0.321486 10.0035L8.83785 13.8986L13.0871 21.7053C13.1853 21.8874 13.3884 22.004 13.6116 21.9999C13.8325 21.9958 14.0334 21.8751 14.1226 21.6889L23.9423 0.74023C24.0272 0.568385 24.0048 0.365854 23.8821 0.214467C23.7616 0.0610339 23.5585 -0.0187515 23.3532 0.00375214ZM20.925 2.08226L9.14137 12.8839L1.92835 9.57797L20.925 2.08226ZM21.7284 2.81873L13.5513 20.2323L9.9448 13.6204L21.7284 2.81873Z" fill="#3C292D"/>
</svg>
