<svg width="22" height="22" viewBox="0 0 22 22" fill="none" xmlns="http://www.w3.org/2000/svg">
<path d="M10.7429 0.00296633C10.6621 0.0132772 10.5865 0.0476471 10.5229 0.0992014C10.5229 0.0992014 7.27841 2.58757 7.27841 6.12077C7.27841 7.18966 7.48462 9.30684 7.70459 11.3999C7.75614 11.8914 7.77677 12.0959 7.82832 12.5685L6.05484 14.6719C5.98954 14.7544 5.95517 14.8558 5.95861 14.9606V16.7204C5.95861 16.8647 6.02907 16.9988 6.14764 17.0813C6.2645 17.162 6.41573 17.1826 6.54977 17.1328L8.282 16.5142C8.39542 16.8664 8.70647 17.1603 9.12062 17.1603H12.4751C12.8893 17.1603 13.2003 16.8664 13.3137 16.5142L15.046 17.1328C15.18 17.1826 15.3312 17.162 15.4481 17.0813C15.5667 16.9988 15.6371 16.8647 15.6371 16.7204V14.9606C15.6406 14.8558 15.6062 14.7544 15.5409 14.6719L13.7812 12.596C14.0475 10.1626 14.3173 7.37698 14.3173 6.12077C14.3173 2.58757 11.0728 0.0992014 11.0728 0.0992014C10.98 0.0235881 10.8614 -0.0107815 10.7429 0.00296633ZM10.7979 1.0753C11.2464 1.46024 13.4375 3.42103 13.4375 6.12077C13.4375 7.98532 12.6951 14.5654 12.4751 16.2392C12.4751 16.2444 12.4751 16.2615 12.4751 16.2667C12.4751 16.2684 12.4699 16.2804 12.4751 16.2804H9.12062C9.12062 16.2736 9.12062 16.2461 9.12062 16.2392C9.02954 15.3817 8.78895 13.3728 8.57071 11.3037C8.35074 9.21747 8.15827 7.07453 8.15827 6.12077C8.15827 3.42103 10.3493 1.46024 10.7979 1.0753ZM10.7979 4.40228C9.83035 4.40228 9.03813 5.1945 9.03813 6.16201C9.03813 7.12952 9.83035 7.92174 10.7979 7.92174C11.7654 7.92174 12.5576 7.12952 12.5576 6.16201C12.5576 5.1945 11.7654 4.40228 10.7979 4.40228ZM10.7979 5.28215C11.2893 5.28215 11.6777 5.67052 11.6777 6.16201C11.6777 6.6535 11.2893 7.04187 10.7979 7.04187C10.3064 7.04187 9.918 6.6535 9.918 6.16201C9.918 5.67052 10.3064 5.28215 10.7979 5.28215ZM7.9658 13.7921C8.03969 14.4417 8.1239 15.1772 8.17202 15.6068L6.83847 16.088V15.1394L7.9658 13.7921ZM13.6437 13.8196L14.7573 15.1394V16.088L13.4375 15.6068C13.4993 15.1033 13.5595 14.5637 13.6437 13.8196ZM9.27185 17.5865C9.25294 17.5899 9.23404 17.5951 9.21686 17.6002C9.07422 17.6295 8.95736 17.7274 8.90066 17.8614C8.76833 18.1691 8.5982 18.5402 8.5982 19.0025C8.5982 19.7879 9.12234 20.4512 9.58805 20.9822C10.0538 21.5132 10.5229 21.9033 10.5229 21.9033C10.6844 22.0322 10.9113 22.0322 11.0728 21.9033C11.0728 21.9033 11.542 21.5132 12.0077 20.9822C12.4734 20.4512 12.9975 19.7879 12.9975 19.0025C12.9975 18.5781 12.8927 18.1502 12.6538 17.7927C12.5163 17.5916 12.2431 17.5384 12.042 17.6758C11.841 17.8133 11.7877 18.0866 11.9252 18.2876C12.0386 18.4578 12.1177 18.7241 12.1177 19.0025C12.1177 19.317 11.7619 19.9339 11.3478 20.4048C11.0728 20.7176 10.9525 20.8035 10.7979 20.941C10.6432 20.8035 10.5229 20.7176 10.2479 20.4048C9.83379 19.9339 9.47807 19.317 9.47807 19.0025C9.47807 18.7602 9.57946 18.5265 9.71178 18.2189C9.78224 18.0745 9.77021 17.9044 9.67913 17.7721C9.58633 17.6415 9.43167 17.5693 9.27185 17.5865Z" fill="#3C292D"/>
</svg>
