<svg width="23" height="22" viewBox="0 0 23 22" fill="none" xmlns="http://www.w3.org/2000/svg">
<path d="M1.30363 0C0.593543 0 0.00271024 0.565144 0.00271024 1.24435V3.45654C-0.000903413 3.48419 -0.000903413 3.51184 0.00271024 3.53949V17.6975C0.00271024 17.9412 0.210495 18.1399 0.465258 18.1399H11.1039C11.2701 18.1416 11.4255 18.0587 11.5104 17.9204C11.5935 17.7822 11.5935 17.6128 11.5104 17.4745C11.4255 17.3363 11.2701 17.2533 11.1039 17.255H0.927805V3.98193H19.4297V11.0609C19.4279 11.2199 19.5146 11.3686 19.6592 11.4498C19.8037 11.5293 19.9808 11.5293 20.1253 11.4498C20.2699 11.3686 20.3566 11.2199 20.3548 11.0609V3.53949C20.3584 3.51184 20.3584 3.48419 20.3548 3.45654V1.24435C20.3548 0.565144 19.764 0 19.0539 0H1.30363ZM1.30363 0.884874H19.0539C19.2689 0.884874 19.4297 1.03869 19.4297 1.24435V3.09706H0.927805V1.24435C0.927805 1.03869 1.08861 0.884874 1.30363 0.884874ZM3.24054 6.63655V7.52143H5.09073V6.63655H3.24054ZM6.47838 6.63655V7.52143H17.117V6.63655H6.47838ZM3.24054 8.84874V9.73361H5.09073V8.84874H3.24054ZM6.47838 8.84874V9.73361H17.117V8.84874H6.47838ZM3.24054 11.0609V11.9458H5.09073V11.0609H3.24054ZM6.47838 11.0609V11.9458H12.954V11.0609H6.47838ZM16.6544 11.5034C14.105 11.5034 12.0289 13.4891 12.0289 15.9277C12.0289 18.3663 14.105 20.3521 16.6544 20.3521C17.762 20.3521 18.7774 19.9805 19.5743 19.3566L22.3351 21.9974L23 21.3614L20.2392 18.7206C20.8914 17.9584 21.2799 16.9872 21.2799 15.9277C21.2799 13.4891 19.2039 11.5034 16.6544 11.5034ZM16.6544 12.3882C18.7034 12.3882 20.3548 13.9679 20.3548 15.9277C20.3548 17.8876 18.7034 19.4672 16.6544 19.4672C14.6055 19.4672 12.954 17.8876 12.954 15.9277C12.954 13.9679 14.6055 12.3882 16.6544 12.3882ZM3.24054 13.2731V14.158H5.09073V13.2731H3.24054ZM6.47838 13.2731V14.158H11.1039V13.2731H6.47838Z" fill="#3C292D"/>
</svg>
