<svg width="24" height="22" viewBox="0 0 24 22" fill="none" xmlns="http://www.w3.org/2000/svg">
<path d="M11.734 0C9.10161 0.0443876 7.42003 1.01889 6.69809 2.53412C6.00917 3.97671 6.16324 5.79861 6.66288 7.68305C6.39435 7.97157 6.18085 8.35895 6.25789 8.94204C6.34153 9.57759 6.53302 10.0295 6.80374 10.3463C6.95341 10.5198 7.1493 10.5359 7.33199 10.6207C7.43103 11.1614 7.59611 11.7021 7.84263 12.1541C7.98349 12.4143 8.14417 12.6544 8.30044 12.8481C8.37087 12.9349 8.47212 12.9853 8.54696 13.058C8.55136 13.6955 8.55356 14.2262 8.49413 14.898C8.31145 15.3036 7.88445 15.6304 7.19112 15.9472C6.47579 16.274 5.54475 16.5767 4.60271 16.9479C3.66068 17.3191 2.69222 17.7711 1.92627 18.4813C1.16031 19.1915 0.618856 20.166 0.535216 21.4512L0.5 22H23.109L23.0737 21.4512C22.9901 20.166 22.4464 19.1915 21.6827 18.4813C20.9189 17.7711 19.9615 17.3191 19.0238 16.9479C18.0862 16.5767 17.1662 16.274 16.453 15.9472C15.7685 15.6324 15.3371 15.3136 15.15 14.9142C15.0884 14.2342 15.0928 13.7016 15.0972 13.058C15.172 12.9833 15.2733 12.9349 15.3437 12.8481C15.4978 12.6524 15.6453 12.4123 15.7839 12.1541C16.0238 11.7021 16.1977 11.1594 16.2946 10.6207C16.4707 10.5359 16.6599 10.5158 16.8052 10.3463C17.0759 10.0295 17.2674 9.57759 17.3511 8.94204C17.4259 8.37711 17.219 8.00385 16.9637 7.71533C17.2388 6.89618 17.591 5.57263 17.4743 4.21277C17.4105 3.47029 17.2036 2.72982 16.7172 2.11445C16.2726 1.54952 15.5506 1.13793 14.6394 0.968452C14.0473 0.264307 12.982 0 11.7517 0H11.734ZM11.7517 1.03302C11.7583 1.03302 11.7627 1.03302 11.7693 1.03302C12.9028 1.03705 13.6379 1.34171 13.847 1.67865L13.9879 1.88848L14.252 1.92076C15.0356 2.01963 15.4846 2.31016 15.8015 2.71167C16.1185 3.11317 16.2946 3.67406 16.3474 4.29347C16.453 5.53228 16.0635 6.97487 15.8191 7.65077L15.6783 8.05429L16.0657 8.26412C16.0415 8.25 16.2814 8.3993 16.2241 8.82905C16.1581 9.33547 16.026 9.59776 15.9248 9.7168C15.8236 9.83584 15.7707 9.82979 15.7663 9.82979L15.2909 9.86207L15.2381 10.2817C15.1853 10.7276 14.9894 11.2744 14.7627 11.7021C14.6482 11.916 14.5315 12.1036 14.4281 12.2348C14.3247 12.3659 14.2168 12.4386 14.2696 12.4123L13.9703 12.5576V12.8643C13.9703 13.6128 13.9373 14.2262 14.0231 15.0917V15.1563L14.0583 15.2208C14.3797 16.0138 15.1236 16.5081 15.9424 16.8833C16.7612 17.2586 17.701 17.535 18.5836 17.8841C19.4663 18.2331 20.274 18.6508 20.8727 19.2076C21.3481 19.6495 21.6475 20.2346 21.8059 20.967H1.80301C1.96148 20.2366 2.25862 19.6495 2.73624 19.2076C3.33712 18.6508 4.15591 18.2331 5.04292 17.8841C5.92993 17.535 6.86317 17.2586 7.68415 16.8833C8.50514 16.5081 9.26449 16.0138 9.58584 15.2208L9.62106 15.0917C9.7069 14.2262 9.67388 13.6128 9.67388 12.8643V12.5576L9.37454 12.4123C9.42517 12.4365 9.30411 12.3659 9.19846 12.2348C9.09281 12.1036 8.96295 11.916 8.8463 11.7021C8.61299 11.2744 8.4215 10.7236 8.37087 10.2817L8.31805 9.86207L7.84263 9.82979C7.83822 9.82979 7.7854 9.83584 7.68415 9.7168C7.58291 9.59776 7.45084 9.33547 7.38481 8.82905C7.32979 8.3993 7.5675 8.25 7.54329 8.26412L7.91306 8.05429L7.80741 7.68305C7.27696 5.81071 7.18452 4.10987 7.73698 2.95378C8.28723 1.80172 9.40976 1.0774 11.7517 1.03302Z" fill="#FF5766"/>
</svg>
