<svg xmlns="http://www.w3.org/2000/svg" width="30" height="28" viewBox="0 0 30 28">
    <g fill="none" fill-rule="evenodd">
        <g fill="#FF5766">
            <g>
                <g>
                    <g>
                        <g>
                            <g>
                                <path d="M15.14 24.383c-6.251 0-11.336-4.747-11.336-10.581S8.889 3.22 15.141 3.22c6.251 0 11.336 4.747 11.336 10.58 0 5.835-5.085 10.582-11.336 10.582zm0-23.43C7.55.953 1.376 6.717 1.376 13.802S7.549 26.65 15.14 26.65c7.59 0 13.766-5.764 13.766-12.85C28.907 6.718 22.732.954 15.14.954z" transform="translate(-16 -11) translate(16 3) translate(0 8)"/>
                                <path d="M15.14 4.07c-5.747 0-10.426 4.366-10.426 9.732s4.679 9.731 10.427 9.731c5.75 0 10.426-4.365 10.426-9.73 0-5.367-4.676-9.732-10.426-9.732zm0 21.164c-6.753 0-12.246-5.128-12.246-11.432C2.894 7.5 8.387 2.37 15.141 2.37c6.753 0 12.249 5.129 12.249 11.432 0 6.304-5.496 11.432-12.25 11.432zm0-23.43c-7.087 0-12.855 5.382-12.855 11.998S8.053 25.801 15.14 25.801c7.09 0 12.855-5.383 12.855-11.999 0-6.616-5.766-11.998-12.855-11.998zm0 25.697C7.049 27.501.463 21.356.463 13.802S7.048.102 15.141.102c8.092 0 14.678 6.146 14.678 13.7 0 7.554-6.586 13.7-14.678 13.7z" transform="translate(-16 -11) translate(16 3) translate(0 8)"/>
                                <path d="M16.326 15.076l-3.9 1.292 1.342-3.678 4.123-1.422-1.565 3.808zm2.879-6.159l-6.522 2.25c-.27.093-.48.294-.573.548l-2.124 5.82c-.118.323-.025.68.234.92.18.168.422.257.669.257.108 0 .216-.017.318-.051l6.17-2.045c.262-.087.47-.277.57-.52l2.479-6.025c.134-.326.051-.695-.21-.944-.266-.249-.662-.33-1.011-.21z" transform="translate(-16 -11) translate(16 3) translate(0 8)"/>
                            </g>
                        </g>
                    </g>
                </g>
            </g>
        </g>
    </g>
</svg>
